<svg width="453" height="213" viewBox="0 0 453 213" xmlns="http://www.w3.org/2000/svg">
    <g fill="#FFF" fill-rule="evenodd" opacity=".15">
        <circle cx="1.5" cy="1.5" r="1.5"/>
        <circle cx="31.5" cy="1.5" r="1.5"/>
        <circle cx="61.5" cy="1.5" r="1.5"/>
        <circle cx="91.5" cy="1.5" r="1.5"/>
        <circle cx="121.5" cy="1.5" r="1.5"/>
        <circle cx="151.5" cy="1.5" r="1.5"/>
        <circle cx="181.5" cy="1.5" r="1.5"/>
        <circle cx="211.5" cy="1.5" r="1.5"/>
        <circle cx="241.5" cy="1.5" r="1.5"/>
        <circle cx="271.5" cy="1.5" r="1.5"/>
        <circle cx="301.5" cy="1.5" r="1.5"/>
        <circle cx="331.5" cy="1.5" r="1.5"/>
        <circle cx="361.5" cy="1.5" r="1.5"/>
        <circle cx="391.5" cy="1.5" r="1.5"/>
        <circle cx="421.5" cy="1.5" r="1.5"/>
        <circle cx="451.5" cy="1.5" r="1.5"/>
        <g transform="translate(0 30)">
            <circle cx="1.5" cy="1.5" r="1.5"/>
            <circle cx="31.5" cy="1.5" r="1.5"/>
            <circle cx="61.5" cy="1.5" r="1.5"/>
            <circle cx="91.5" cy="1.5" r="1.5"/>
            <circle cx="121.5" cy="1.5" r="1.5"/>
            <circle cx="151.5" cy="1.5" r="1.5"/>
            <circle cx="181.5" cy="1.5" r="1.5"/>
            <circle cx="211.5" cy="1.5" r="1.5"/>
            <circle cx="241.5" cy="1.5" r="1.5"/>
            <circle cx="271.5" cy="1.5" r="1.5"/>
            <circle cx="301.5" cy="1.5" r="1.5"/>
            <circle cx="331.5" cy="1.5" r="1.5"/>
            <circle cx="361.5" cy="1.5" r="1.5"/>
            <circle cx="391.5" cy="1.5" r="1.5"/>
            <circle cx="421.5" cy="1.5" r="1.5"/>
            <circle cx="451.5" cy="1.5" r="1.5"/>
        </g>
        <g transform="translate(0 60)">
            <circle cx="1.5" cy="1.5" r="1.5"/>
            <circle cx="31.5" cy="1.5" r="1.5"/>
            <circle cx="61.5" cy="1.5" r="1.5"/>
            <circle cx="91.5" cy="1.5" r="1.5"/>
            <circle cx="121.5" cy="1.5" r="1.5"/>
            <circle cx="151.5" cy="1.5" r="1.5"/>
            <circle cx="181.5" cy="1.5" r="1.5"/>
            <circle cx="211.5" cy="1.5" r="1.5"/>
            <circle cx="241.5" cy="1.5" r="1.5"/>
            <circle cx="271.5" cy="1.5" r="1.5"/>
            <circle cx="301.5" cy="1.5" r="1.5"/>
            <circle cx="331.5" cy="1.5" r="1.5"/>
            <circle cx="361.5" cy="1.5" r="1.5"/>
            <circle cx="391.5" cy="1.5" r="1.5"/>
            <circle cx="421.5" cy="1.5" r="1.5"/>
            <circle cx="451.5" cy="1.5" r="1.5"/>
        </g>
        <g transform="translate(0 90)">
            <circle cx="1.5" cy="1.5" r="1.5"/>
            <circle cx="31.5" cy="1.5" r="1.5"/>
            <circle cx="61.5" cy="1.5" r="1.5"/>
            <circle cx="91.5" cy="1.5" r="1.5"/>
            <circle cx="121.5" cy="1.5" r="1.5"/>
            <circle cx="151.5" cy="1.5" r="1.5"/>
            <circle cx="181.5" cy="1.5" r="1.5"/>
            <circle cx="211.5" cy="1.5" r="1.5"/>
            <circle cx="241.5" cy="1.5" r="1.5"/>
            <circle cx="271.5" cy="1.5" r="1.5"/>
            <circle cx="301.5" cy="1.5" r="1.5"/>
            <circle cx="331.5" cy="1.5" r="1.5"/>
            <circle cx="361.5" cy="1.5" r="1.5"/>
            <circle cx="391.5" cy="1.5" r="1.5"/>
            <circle cx="421.5" cy="1.5" r="1.5"/>
            <circle cx="451.5" cy="1.5" r="1.5"/>
        </g>
        <g transform="translate(0 120)">
            <circle cx="1.5" cy="1.5" r="1.5"/>
            <circle cx="31.5" cy="1.5" r="1.5"/>
            <circle cx="61.5" cy="1.5" r="1.5"/>
            <circle cx="91.5" cy="1.5" r="1.5"/>
            <circle cx="121.5" cy="1.5" r="1.5"/>
            <circle cx="151.5" cy="1.5" r="1.5"/>
            <circle cx="181.5" cy="1.5" r="1.5"/>
            <circle cx="211.5" cy="1.5" r="1.5"/>
            <circle cx="241.5" cy="1.5" r="1.5"/>
            <circle cx="271.5" cy="1.5" r="1.5"/>
            <circle cx="301.5" cy="1.5" r="1.5"/>
            <circle cx="331.5" cy="1.5" r="1.5"/>
            <circle cx="361.5" cy="1.5" r="1.5"/>
            <circle cx="391.5" cy="1.5" r="1.5"/>
            <circle cx="421.5" cy="1.5" r="1.5"/>
            <circle cx="451.5" cy="1.5" r="1.5"/>
        </g>
        <g transform="translate(0 150)">
            <circle cx="1.5" cy="1.5" r="1.5"/>
            <circle cx="31.5" cy="1.5" r="1.5"/>
            <circle cx="61.5" cy="1.5" r="1.5"/>
            <circle cx="91.5" cy="1.5" r="1.5"/>
            <circle cx="121.5" cy="1.5" r="1.5"/>
            <circle cx="151.5" cy="1.5" r="1.5"/>
            <circle cx="181.5" cy="1.5" r="1.5"/>
            <circle cx="211.5" cy="1.5" r="1.5"/>
            <circle cx="241.5" cy="1.5" r="1.5"/>
            <circle cx="271.5" cy="1.5" r="1.5"/>
            <circle cx="301.5" cy="1.5" r="1.5"/>
            <circle cx="331.5" cy="1.5" r="1.5"/>
            <circle cx="361.5" cy="1.5" r="1.5"/>
            <circle cx="391.5" cy="1.5" r="1.5"/>
            <circle cx="421.5" cy="1.5" r="1.5"/>
            <circle cx="451.5" cy="1.5" r="1.5"/>
        </g>
        <g transform="translate(0 180)">
            <circle cx="1.5" cy="1.5" r="1.5"/>
            <circle cx="31.5" cy="1.5" r="1.5"/>
            <circle cx="61.5" cy="1.5" r="1.5"/>
            <circle cx="91.5" cy="1.5" r="1.5"/>
            <circle cx="121.5" cy="1.5" r="1.5"/>
            <circle cx="151.5" cy="1.5" r="1.5"/>
            <circle cx="181.5" cy="1.5" r="1.5"/>
            <circle cx="211.5" cy="1.5" r="1.5"/>
            <circle cx="241.5" cy="1.5" r="1.5"/>
            <circle cx="271.5" cy="1.5" r="1.5"/>
            <circle cx="301.5" cy="1.5" r="1.5"/>
            <circle cx="331.5" cy="1.5" r="1.5"/>
            <circle cx="361.5" cy="1.5" r="1.5"/>
            <circle cx="391.5" cy="1.5" r="1.5"/>
            <circle cx="421.5" cy="1.5" r="1.5"/>
            <circle cx="451.5" cy="1.5" r="1.5"/>
        </g>
        <g transform="translate(0 210)">
            <circle cx="1.5" cy="1.5" r="1.5"/>
            <circle cx="31.5" cy="1.5" r="1.5"/>
            <circle cx="61.5" cy="1.5" r="1.5"/>
            <circle cx="91.5" cy="1.5" r="1.5"/>
            <circle cx="121.5" cy="1.5" r="1.5"/>
            <circle cx="151.5" cy="1.5" r="1.5"/>
            <circle cx="181.5" cy="1.5" r="1.5"/>
            <circle cx="211.5" cy="1.5" r="1.5"/>
            <circle cx="241.5" cy="1.5" r="1.5"/>
            <circle cx="271.5" cy="1.5" r="1.5"/>
            <circle cx="301.5" cy="1.5" r="1.5"/>
            <circle cx="331.5" cy="1.5" r="1.5"/>
            <circle cx="361.5" cy="1.5" r="1.5"/>
            <circle cx="391.5" cy="1.5" r="1.5"/>
            <circle cx="421.5" cy="1.5" r="1.5"/>
            <circle cx="451.5" cy="1.5" r="1.5"/>
        </g>
    </g>
</svg>
