<svg width="910" height="120" viewBox="0 0 910 120" xmlns="http://www.w3.org/2000/svg">
    <path d="M67.9 13.9c5 2.7 8.875 6.525 11.625 11.475C82.275 30.325 83.65 36 83.65 42.4c0 6.3-1.425 11.85-4.275 16.65-2.85 4.8-6.85 8.525-12 11.175C62.225 72.875 56.3 74.2 49.6 74.2H28.45c-.6 0-.9.3-.9.9v37.35c0 1.7-.85 2.55-2.55 2.55H8.95c-1.7 0-2.55-.85-2.55-2.55V12.4c0-1.7.85-2.55 2.55-2.55H50.5c6.6 0 12.4 1.35 17.4 4.05zm-9.45 39.375c2.8-2.65 4.2-6.125 4.2-10.425 0-4.4-1.4-7.95-4.2-10.65-2.8-2.7-6.5-4.05-11.1-4.05h-18.9c-.6 0-.9.3-.9.9v27.3c0 .6.3.9.9.9h18.9c4.6 0 8.3-1.325 11.1-3.975zM141.7 38.65c1.2.6 1.65 1.65 1.35 3.15l-2.85 15.75c-.1.9-.375 1.45-.825 1.65-.45.2-1.175.2-2.175 0-1.6-.4-3.05-.6-4.35-.6-.7 0-1.85.1-3.45.3-3.6.3-6.65 1.625-9.15 3.975s-3.75 5.475-3.75 9.375v40.2c0 1.7-.85 2.55-2.55 2.55H97.9c-1.7 0-2.55-.85-2.55-2.55v-72c0-1.7.85-2.55 2.55-2.55h16.05c1.7 0 2.55.85 2.55 2.55v4.65c0 .4.1.65.3.75.2.1.45 0 .75-.3 4-5.8 9.4-8.7 16.2-8.7 3.2 0 5.85.6 7.95 1.8zm13.5-11.625c-2.4-2.35-3.6-5.375-3.6-9.075 0-3.7 1.2-6.725 3.6-9.075 2.4-2.35 5.5-3.525 9.3-3.525 3.9 0 7.025 1.15 9.375 3.45 2.35 2.3 3.525 5.35 3.525 9.15 0 3.8-1.175 6.85-3.525 9.15-2.35 2.3-5.475 3.45-9.375 3.45-3.8 0-6.9-1.175-9.3-3.525zM154 112.45v-72c0-1.7.85-2.55 2.55-2.55h16.05c1.7 0 2.55.85 2.55 2.55v72c0 1.7-.85 2.55-2.55 2.55h-16.05c-1.7 0-2.55-.85-2.55-2.55zm97.35-68.4c4.9 4.9 7.35 11.55 7.35 19.95v48.45c0 1.7-.85 2.55-2.55 2.55H240.1c-1.7 0-2.55-.85-2.55-2.55v-44.1c0-4-1.1-7.25-3.3-9.75-2.2-2.5-5.15-3.75-8.85-3.75-3.7 0-6.7 1.25-9 3.75s-3.45 5.75-3.45 9.75v44.1c0 1.7-.85 2.55-2.55 2.55h-16.05c-1.7 0-2.55-.85-2.55-2.55v-72c0-1.7.85-2.55 2.55-2.55h16.05c1.7 0 2.55.85 2.55 2.55v4.2c0 .4.1.65.3.75.2.1.4 0 .6-.3 4.1-5.6 10.15-8.4 18.15-8.4 8 0 14.45 2.45 19.35 7.35zm64.2 10.8h-13.5c-.6 0-.9.3-.9.9V86.8c0 3.3.675 5.725 2.025 7.275 1.35 1.55 3.525 2.325 6.525 2.325h4.2c1.7 0 2.55.85 2.55 2.55v12.9c0 1.6-.85 2.5-2.55 2.7-3.8.2-6.55.3-8.25.3-8.3 0-14.5-1.4-18.6-4.2-4.1-2.8-6.2-8-6.3-15.6v-39.3c0-.6-.3-.9-.9-.9h-7.65c-1.7 0-2.55-.85-2.55-2.55V40.45c0-1.7.85-2.55 2.55-2.55h7.65c.6 0 .9-.3.9-.9V20.05c0-1.7.85-2.55 2.55-2.55h15.3c1.7 0 2.55.85 2.55 2.55V37c0 .6.3.9.9.9h13.5c1.7 0 2.55.85 2.55 2.55V52.3c0 1.7-.85 2.55-2.55 2.55zM451 113.5c0 .4-.2.75-.6 1.05-.4.3-.95.45-1.65.45h-17.7c-1.2 0-2.25-.45-3.15-1.35l-5.4-6c-.4-.4-.85-.45-1.35-.15-9.3 5.8-19.25 8.7-29.85 8.7-9.4 0-17.175-2.225-23.325-6.675-6.15-4.45-9.225-11.025-9.225-19.725 0-6.6 1.75-12.2 5.25-16.8 3.5-4.6 8.25-8.8 14.25-12.6.6-.3.7-.7.3-1.2-5-5.8-8.3-10.225-9.9-13.275-1.6-3.05-2.4-6.175-2.4-9.375 0-8.3 2.8-15 8.4-20.1 5.6-5.1 13-7.65 22.2-7.65 6.1 0 11.575 1.15 16.425 3.45 4.85 2.3 8.65 5.525 11.4 9.675S428.8 30.8 428.8 36.1c0 6.2-1.775 11.45-5.325 15.75-3.55 4.3-8.425 8.3-14.625 12-.6.3-.65.7-.15 1.2l14.1 15.6c.2.2.425.3.675.3.25 0 .425-.1.525-.3 3.2-3.2 6.15-6.95 8.85-11.25.6-.9 1.3-1.35 2.1-1.35.4 0 .9.15 1.5.45L448 75.1c.9.4 1.35 1.1 1.35 2.1 0 .4-.15.9-.45 1.5-3.8 5.9-7.95 11.35-12.45 16.35-.4.4-.3.9.3 1.5 3.7 4.4 8.2 9.5 13.5 15.3.5.7.75 1.25.75 1.65zm-60.9-83.175c-1.8 1.55-2.7 3.625-2.7 6.225 0 1.3.5 2.8 1.5 4.5 1 1.7 3.2 4.6 6.6 8.7.5.5.95.6 1.35.3 3.5-2.2 6.175-4.35 8.025-6.45 1.85-2.1 2.775-4.45 2.775-7.05 0-2.6-.95-4.675-2.85-6.225-1.9-1.55-4.35-2.325-7.35-2.325-3.1 0-5.55.775-7.35 2.325zm18 63.075c.6-.3.65-.7.15-1.2-3.4-3.8-6.1-6.75-8.1-8.85-.1-.1-1.65-1.8-4.65-5.1l-3.6-3.9c-.4-.4-.85-.45-1.35-.15-7.1 4.6-10.65 9.5-10.65 14.7 0 3 1.075 5.35 3.225 7.05 2.15 1.7 5.075 2.55 8.775 2.55 5.2 0 10.6-1.7 16.2-5.1zm106.425 18.45c-5.95-3.2-10.575-7.675-13.875-13.425-3.3-5.75-4.95-12.375-4.95-19.875v-32.1c0-7.4 1.65-13.95 4.95-19.65 3.3-5.7 7.925-10.125 13.875-13.275 5.95-3.15 12.825-4.725 20.625-4.725 7.9 0 14.825 1.575 20.775 4.725 5.95 3.15 10.575 7.575 13.875 13.275 3.3 5.7 4.95 12.25 4.95 19.65v32.1c0 7.5-1.65 14.15-4.95 19.95-3.3 5.8-7.925 10.275-13.875 13.425-5.95 3.15-12.875 4.725-20.775 4.725-7.8 0-14.675-1.6-20.625-4.8zm33.975-18.6c3.4-3.5 5.1-8.15 5.1-13.95v-33c0-5.8-1.675-10.475-5.025-14.025-3.35-3.55-7.825-5.325-13.425-5.325-5.5 0-9.925 1.775-13.275 5.325-3.35 3.55-5.025 8.225-5.025 14.025v33c0 5.8 1.675 10.45 5.025 13.95 3.35 3.5 7.775 5.25 13.275 5.25s9.95-1.75 13.35-5.25zm100.65-49.2c4.9 4.9 7.35 11.55 7.35 19.95v48.45c0 1.7-.85 2.55-2.55 2.55H637.9c-1.7 0-2.55-.85-2.55-2.55v-44.1c0-4-1.1-7.25-3.3-9.75-2.2-2.5-5.15-3.75-8.85-3.75-3.7 0-6.7 1.25-9 3.75s-3.45 5.75-3.45 9.75v44.1c0 1.7-.85 2.55-2.55 2.55h-16.05c-1.7 0-2.55-.85-2.55-2.55v-72c0-1.7.85-2.55 2.55-2.55h16.05c1.7 0 2.55.85 2.55 2.55v4.2c0 .4.1.65.3.75.2.1.4 0 .6-.3 4.1-5.6 10.15-8.4 18.15-8.4 8 0 14.45 2.45 19.35 7.35zm22.8 68.4v-99.9c0-1.7.85-2.55 2.55-2.55h16.05c1.7 0 2.55.85 2.55 2.55v99.9c0 1.7-.85 2.55-2.55 2.55H674.5c-1.7 0-2.55-.85-2.55-2.55zm39.45-85.425c-2.4-2.35-3.6-5.375-3.6-9.075 0-3.7 1.2-6.725 3.6-9.075 2.4-2.35 5.5-3.525 9.3-3.525 3.9 0 7.025 1.15 9.375 3.45 2.35 2.3 3.525 5.35 3.525 9.15 0 3.8-1.175 6.85-3.525 9.15-2.35 2.3-5.475 3.45-9.375 3.45-3.8 0-6.9-1.175-9.3-3.525zm-1.2 85.425v-72c0-1.7.85-2.55 2.55-2.55h16.05c1.7 0 2.55.85 2.55 2.55v72c0 1.7-.85 2.55-2.55 2.55h-16.05c-1.7 0-2.55-.85-2.55-2.55zm97.35-68.4c4.9 4.9 7.35 11.55 7.35 19.95v48.45c0 1.7-.85 2.55-2.55 2.55H796.3c-1.7 0-2.55-.85-2.55-2.55v-44.1c0-4-1.1-7.25-3.3-9.75-2.2-2.5-5.15-3.75-8.85-3.75-3.7 0-6.7 1.25-9 3.75s-3.45 5.75-3.45 9.75v44.1c0 1.7-.85 2.55-2.55 2.55h-16.05c-1.7 0-2.55-.85-2.55-2.55v-72c0-1.7.85-2.55 2.55-2.55h16.05c1.7 0 2.55.85 2.55 2.55v4.2c0 .4.1.65.3.75.2.1.4 0 .6-.3 4.1-5.6 10.15-8.4 18.15-8.4 8 0 14.45 2.45 19.35 7.35zm74.85 47.4c.6-.7 1.25-1.05 1.95-1.05.6 0 1.15.25 1.65.75l8.55 8.25c.6.6.9 1.2.9 1.8 0 .7-.2 1.3-.6 1.8-3.3 4.1-7.525 7.325-12.675 9.675-5.15 2.35-10.775 3.525-16.875 3.525-9.2 0-16.825-2.35-22.875-7.05-6.05-4.7-10.125-11.15-12.225-19.35-1.2-4.4-1.8-9.05-1.8-13.95 0-5.8.55-10.7 1.65-14.7 2-7.4 6.025-13.35 12.075-17.85 6.05-4.5 13.225-6.75 21.525-6.75 9.8 0 17.575 2.9 23.325 8.7 5.75 5.8 9.475 13.95 11.175 24.45.4 3.3.7 6.95.9 10.95 0 1.7-.85 2.55-2.55 2.55h-46.05c-.6 0-.9.3-.9.9.3 2.1.65 3.65 1.05 4.65 1 3.1 2.975 5.475 5.925 7.125 2.95 1.65 6.525 2.475 10.725 2.475 6.6-.3 11.65-2.6 15.15-6.9zm-27.075-34.275c-2.15 1.55-3.625 3.725-4.425 6.525-.5 1.9-.8 3.15-.9 3.75-.1.6.15.9.75.9h25.5c.5 0 .75-.2.75-.6 0-1.1-.2-2.25-.6-3.45-.9-2.9-2.45-5.2-4.65-6.9-2.2-1.7-5-2.55-8.4-2.55-3.2 0-5.875.775-8.025 2.325z" fill="#181818" fill-rule="evenodd" opacity=".05"/>
</svg>
